<?xml version="1.0" standalone="no"?>
<svg xmlns:xlink="http://www.w3.org/1999/xlink" id="wave" style="transform:rotate(0deg); transition: 0.3s" viewBox="0 0 1440 490" version="1.1" xmlns="http://www.w3.org/2000/svg"><defs><linearGradient id="sw-gradient-0" x1="0" x2="0" y1="1" y2="0"><stop stop-color="rgba(100, 52, 216, 1)" offset="0%"/><stop stop-color="rgba(100, 52, 216, 1)" offset="100%"/></linearGradient></defs><path style="transform:translate(0, 0px); opacity:1" fill="url(#sw-gradient-0)" d="M0,294L60,294C120,294,240,294,360,245C480,196,600,98,720,89.8C840,82,960,163,1080,171.5C1200,180,1320,114,1440,138.8C1560,163,1680,278,1800,302.2C1920,327,2040,261,2160,269.5C2280,278,2400,359,2520,392C2640,425,2760,408,2880,375.7C3000,343,3120,294,3240,236.8C3360,180,3480,114,3600,89.8C3720,65,3840,82,3960,130.7C4080,180,4200,261,4320,253.2C4440,245,4560,147,4680,147C4800,147,4920,245,5040,269.5C5160,294,5280,245,5400,261.3C5520,278,5640,359,5760,375.7C5880,392,6000,343,6120,294C6240,245,6360,196,6480,155.2C6600,114,6720,82,6840,73.5C6960,65,7080,82,7200,122.5C7320,163,7440,229,7560,253.2C7680,278,7800,261,7920,212.3C8040,163,8160,82,8280,65.3C8400,49,8520,98,8580,122.5L8640,147L8640,490L8580,490C8520,490,8400,490,8280,490C8160,490,8040,490,7920,490C7800,490,7680,490,7560,490C7440,490,7320,490,7200,490C7080,490,6960,490,6840,490C6720,490,6600,490,6480,490C6360,490,6240,490,6120,490C6000,490,5880,490,5760,490C5640,490,5520,490,5400,490C5280,490,5160,490,5040,490C4920,490,4800,490,4680,490C4560,490,4440,490,4320,490C4200,490,4080,490,3960,490C3840,490,3720,490,3600,490C3480,490,3360,490,3240,490C3120,490,3000,490,2880,490C2760,490,2640,490,2520,490C2400,490,2280,490,2160,490C2040,490,1920,490,1800,490C1680,490,1560,490,1440,490C1320,490,1200,490,1080,490C960,490,840,490,720,490C600,490,480,490,360,490C240,490,120,490,60,490L0,490Z"/></svg>