<svg xmlns="http://www.w3.org/2000/svg" version="1.1" xmlns:xlink="http://www.w3.org/1999/xlink" xmlns:svgjs="http://svgjs.dev/svgjs" viewBox="0 0 1920 1080"><rect width="1920" height="1080" fill="#6434d8"></rect><g transform="matrix(-2.112515728529184e-16,-1.15,1.15,-2.112515728529184e-16,334.0245819091799,1638.2782691955567)"><path d="M0,-1080C7.634840258003995,-995.1596328620359,35.49463386662912,-721.0177372084311,45.80904154802397,-570.9577971722151C56.12344922941882,-420.8978571359992,61.36519706394894,-323.10902655018447,61.8864460883691,-179.64035978270454C62.407695112789256,-36.17169301522458,56.17445210338878,141.41720847345215,48.93653569454493,289.8542034326646C41.69861928570108,438.291198391877,28.26402651349455,541.298529885148,18.458947635305975,710.98160997257C8.6538687571174,880.664690059992,-8.624554825208302,1137.3682973803518,-9.89393757458653,1307.9526839571965C-11.16332032396476,1478.5370705340413,9.193661543272183,1592.4800434265046,10.842651139036604,1734.4879294336386C12.491640734801026,1876.4958154407725,1.8071085231727675,2089.0813215722733,0,2160L 1920 2160 L 1920 -1080 Z" fill="url(&quot;#SvgjsLinearGradient1212&quot;)"></path><path d="M960,-1080C948.1905784679955,-997.4740146594646,886.3725963877785,-730.9217479465254,889.1434708079724,-584.8440879567877C891.9143452281664,-438.76642796704994,954.9655306198663,-348.3550151065888,976.6252465211638,-203.5340400615737C998.2849624224614,-58.71306501655866,1031.009014737514,133.92419581489918,1019.1017662157581,284.08176231330265C1007.1945176940021,434.2393288117061,927.2540890751086,547.8378342208828,905.1817553906279,697.4113589288471C883.1094217061473,846.9848836368114,882.6253596333189,1018.1556098875501,886.6677641088738,1181.522910561089C890.7101685844287,1344.890211234628,917.2141429287698,1514.5356480635953,929.4361822439574,1677.6151629700805C941.6582215591451,1840.6946778765657,954.906030373993,2079.60252716168,960,2160L 1920 2160 L 1920 -1080 Z" fill="url(&quot;#SvgjsLinearGradient1213&quot;)"></path></g><defs><linearGradient x1="0.1" y1="0" x2="0" y2="1" id="SvgjsLinearGradient1212"><stop stop-color="#6434d8" offset="0"></stop><stop stop-color="#4934d8" offset="0"></stop></linearGradient><linearGradient x1="0.1" y1="0" x2="0" y2="1" id="SvgjsLinearGradient1213"><stop stop-color="#421d99" offset="0"></stop><stop stop-color="#2d1d99" offset="0.5"></stop></linearGradient></defs></svg>