<svg xmlns="http://www.w3.org/2000/svg" version="1.1" xmlns:xlink="http://www.w3.org/1999/xlink" xmlns:svgjs="http://svgjs.dev/svgjs" viewBox="0 0 1920 1080"><rect width="1920" height="1080" fill="#6434d8"></rect><g transform="matrix(-2.112515728529184e-16,-1.15,1.15,-2.112515728529184e-16,334.2915840148928,1638.5853216171265)"><path d="M0,-1080C8.647061431560731,-970.2685891016502,48.08483168931841,-641.4171200207204,51.88236858936439,-421.6115346099012C55.679905489410366,-201.8059491990819,20.39806553077028,23.385833662332317,22.785221400275873,238.8335124649156C25.172377269781467,454.2811912674989,70.91722054089425,665.3811224091995,66.20530380639795,871.0745382055985C61.49338707190165,1076.7679540019976,5.547938294364419,1258.1730969442428,-5.486279006701906,1472.9940072433099C-16.520496307768234,1687.8149175423769,-0.9143798344503177,2045.4990012072183,0,2160L 1920 2160 L 1920 -1080 Z" fill="url(&quot;#SvgjsLinearGradient1210&quot;)"></path><path d="M960,-1080C964.833095298507,-999.5117046877314,997.4110097363772,-746.5195642341066,988.9985717910421,-597.0702281263882C980.586133845707,-447.6208920186698,922.360891008914,-332.0874953130543,909.5253723279892,-183.30398335368963C896.6898536470644,-34.52047139432497,891.7563003634687,145.88885761830883,911.985459705493,295.63084362979976C932.2146190475173,445.37282964129065,1034.0413988937257,569.9155915157388,1030.9003283801353,715.1479327152558C1027.7592578665449,860.3802739147728,904.5071108473608,1010.3034614570023,893.1390366239505,1167.0248908269016C881.7709624005402,1323.7463201968008,951.5483891436651,1489.9806574058018,962.6918830396734,1655.4765089346515C973.8353769356817,1820.9723604635012,960.4486471732789,2075.912751489109,960,2160L 1920 2160 L 1920 -1080 Z" fill="url(&quot;#SvgjsLinearGradient1211&quot;)"></path></g><defs><linearGradient x1="0.1" y1="0" x2="0" y2="1" id="SvgjsLinearGradient1210"><stop stop-color="#6434d8" offset="0"></stop><stop stop-color="#4934d8" offset="0"></stop></linearGradient><linearGradient x1="0.1" y1="0" x2="0" y2="1" id="SvgjsLinearGradient1211"><stop stop-color="#a8d834" offset="0"></stop><stop stop-color="#c3d834" offset="0.5"></stop></linearGradient></defs></svg>